<svg width="625" height="547" viewBox="0 0 625 547" fill="none" xmlns="http://www.w3.org/2000/svg">
<g clip-path="url(#clip0_147_2)">
<path d="M578.839 130.283L459.375 156.741C454.493 157.823 449.66 154.741 448.577 149.859L423.685 37.4667C422.605 32.5854 425.685 27.752 430.567 26.6707L550.031 0.212021C554.912 -0.869308 559.747 2.21201 560.828 7.09334L585.72 119.485C586.801 124.367 583.721 129.201 578.839 130.283Z" fill="#E7E8E5"/>
<path d="M532.011 92.9615C532.016 92.9815 531.704 93.0721 531.103 93.2268C530.448 93.3868 529.567 93.6041 528.46 93.8761C526.099 94.4295 522.771 95.2095 518.657 96.1721C510.277 98.0761 498.712 100.705 485.697 103.663L485.428 103.724L485.331 103.465C484.695 101.775 484.021 99.9855 483.34 98.1721C477.567 82.6628 472.415 68.8215 469.048 59.7761L469.281 59.9028C465.556 60.6961 462.581 61.3308 460.476 61.7788C459.493 61.9774 458.713 62.1334 458.127 62.2508C457.593 62.3521 457.313 62.3961 457.309 62.3761C457.305 62.3588 457.576 62.2788 458.103 62.1415C458.683 61.9988 459.453 61.8068 460.429 61.5668C462.524 61.0748 465.484 60.3788 469.192 59.5081L469.363 59.4668L469.427 59.6335C472.844 68.6601 478.076 82.4721 483.939 97.9481C484.619 99.7614 485.289 101.552 485.924 103.241L485.559 103.043C498.591 100.165 510.172 97.6081 518.563 95.7548C522.695 94.8708 526.037 94.1561 528.409 93.6481C529.527 93.4228 530.415 93.2428 531.076 93.1081C531.685 92.9921 532.007 92.9415 532.011 92.9615Z" fill="#FAFAF9"/>
<path d="M482.132 94.0453C482.129 94.0373 482.207 94.0106 482.359 93.968C482.541 93.9186 482.765 93.86 483.037 93.7893C483.681 93.632 484.561 93.4173 485.679 93.1453C488.037 92.596 491.393 91.812 495.587 90.8333C504.101 88.8973 516.008 86.1893 529.792 83.0533L529.553 83.3666C529.277 77.3773 528.977 70.9013 528.668 64.1986C528.512 60.7506 528.359 57.364 528.213 54.1333L528.597 54.428C512.569 57.9746 498.423 61.1066 488.229 63.3626C483.183 64.452 479.117 65.3293 476.264 65.9453C474.893 66.2293 473.815 66.452 473.033 66.6133C472.692 66.6773 472.416 66.7293 472.193 66.772C472.004 66.804 471.905 66.816 471.903 66.8066C471.901 66.796 471.996 66.7653 472.18 66.7146C472.399 66.6573 472.672 66.5866 473.007 66.4986C473.783 66.312 474.853 66.0533 476.215 65.724C479.059 65.064 483.109 64.1226 488.139 62.9546C498.32 60.6453 512.451 57.4413 528.459 53.8119L528.827 53.728L528.843 54.1053C528.992 57.3346 529.147 60.7226 529.305 64.1706C529.607 70.8733 529.896 77.3493 530.165 83.3386L530.176 83.596L529.925 83.652C516.121 86.6973 504.197 89.3293 495.672 91.2093C491.46 92.1146 488.091 92.8386 485.725 93.3466C484.597 93.5773 483.711 93.76 483.061 93.892C482.783 93.944 482.557 93.9853 482.371 94.02C482.215 94.0453 482.135 94.0546 482.132 94.0453Z" fill="#FAFAF9"/>
<path d="M500.044 113.345C499.988 113.36 499.893 112.945 499.535 112.301C499.181 111.668 498.484 110.792 497.292 110.275C496.133 109.744 494.428 109.696 493.008 110.629C491.589 111.512 490.633 113.448 491.079 115.353C491.489 117.267 493.179 118.609 494.839 118.803C496.521 119.041 498.044 118.269 498.865 117.297C499.723 116.32 499.98 115.229 500.028 114.507C500.077 113.772 499.987 113.356 500.044 113.345C500.071 113.336 500.249 113.736 500.277 114.513C500.303 115.275 500.107 116.472 499.212 117.588C498.355 118.695 496.676 119.621 494.764 119.387C492.881 119.205 490.925 117.685 490.455 115.493C489.945 113.311 491.065 111.103 492.691 110.135C494.321 109.105 496.233 109.228 497.48 109.864C498.765 110.491 499.453 111.489 499.756 112.189C500.063 112.905 500.072 113.341 500.044 113.345Z" fill="#FAFAF9"/>
<path d="M529.896 106.657C529.839 106.672 529.744 106.257 529.387 105.613C529.033 104.98 528.336 104.104 527.144 103.585C525.985 103.056 524.28 103.008 522.86 103.941C521.441 104.824 520.485 106.76 520.931 108.665C521.34 110.579 523.031 111.921 524.691 112.115C526.375 112.353 527.895 111.581 528.717 110.609C529.573 109.632 529.832 108.541 529.881 107.819C529.929 107.084 529.839 106.668 529.896 106.657C529.923 106.648 530.101 107.047 530.128 107.824C530.155 108.587 529.957 109.784 529.063 110.899C528.207 112.007 526.529 112.933 524.616 112.699C522.732 112.517 520.777 110.997 520.308 108.804C519.797 106.623 520.917 104.413 522.544 103.445C524.172 102.417 526.085 102.54 527.332 103.176C528.616 103.803 529.305 104.801 529.608 105.501C529.915 106.217 529.924 106.653 529.896 106.657Z" fill="#FAFAF9"/>
<path d="M538.176 47.0294C539.815 54.34 535.216 61.5934 527.905 63.232C520.596 64.8694 513.341 60.272 511.704 52.9614C510.067 45.6507 514.665 38.3974 521.975 36.76C529.284 35.1214 536.539 39.72 538.176 47.0294Z" fill="#FAFAF9"/>
<path d="M531.02 43.444C531.096 43.4893 530.616 44.4493 529.783 45.9626C528.948 47.4786 527.757 49.548 526.408 51.8146C525.901 52.6533 525.415 53.4626 524.956 54.224L524.804 54.4773L524.549 54.336C521.125 52.4427 518.696 50.9947 518.764 50.868C518.832 50.7413 521.377 51.9773 524.839 53.7986L524.433 53.912C524.884 53.1453 525.363 52.332 525.859 51.488C527.209 49.2213 528.46 47.188 529.395 45.7333C530.329 44.2773 530.944 43.3986 531.02 43.444Z" fill="#DADBD8"/>
<path d="M75.1438 199.865C72.6845 191.153 61.3621 191.999 61.3621 191.999L61.6735 198.057C68.2183 196.929 72.2861 204.599 72.2861 204.599L75.1438 199.865Z" fill="#DADBD8"/>
<path d="M241.397 99.2881C254.532 103.267 262.703 88.1201 262.703 88.1201L254.712 83.5668C250.807 92.8454 237.689 91.7721 237.689 91.7721L241.397 99.2881Z" fill="#DADBD8"/>
<path d="M350.419 180.597C347.879 173.353 338.341 174.667 338.341 174.667L338.925 179.779C344.404 178.477 348.251 184.753 348.251 184.753L350.419 180.597Z" fill="#DADBD8"/>
<path d="M199.78 10.9401C197.24 3.69742 187.703 5.00942 187.703 5.00942L188.285 10.1214C193.765 8.82007 197.612 15.0974 197.612 15.0974L199.78 10.9401Z" fill="#DADBD8"/>
<path d="M85.9921 103.619C83.4516 96.376 73.9146 97.688 73.9146 97.688L74.4973 102.799C79.9765 101.499 83.824 107.775 83.824 107.775L85.9921 103.619Z" fill="#E7E8E5"/>
<path d="M62.0845 35.9081C54.5099 37.1508 54.1438 46.7708 54.1438 46.7708L59.2787 47.0854C58.9506 41.4641 65.8006 38.7668 65.8006 38.7668L62.0845 35.9081Z" fill="#E7E8E5"/>
<path d="M7.55312 261.221C20.6864 265.2 28.8579 250.052 28.8579 250.052L20.8672 245.499C16.9609 254.779 3.84375 253.705 3.84375 253.705L7.55312 261.221Z" fill="#E7E8E5"/>
<path d="M381.697 100.125C382.585 94.0426 375.333 91.4319 375.333 91.4319L373.848 95.2746C378.219 96.3866 378.616 102.269 378.616 102.269L381.697 100.125Z" fill="#DADBD8"/>
<path d="M338.035 33.3294C332.913 36.7281 335.812 43.8721 335.812 43.8721L339.664 42.412C337.575 38.4147 341.688 34.1934 341.688 34.1934L338.035 33.3294Z" fill="#E7E8E5"/>
<path d="M560.209 169.449L542.479 221.671L594.914 232.091L597.932 176.945L560.209 169.449Z" fill="#F3F2F1"/>
<path d="M592.127 183.883C592.188 183.908 592.028 184.465 591.537 185.38C591.045 186.288 590.223 187.565 588.897 188.889C587.581 190.204 585.72 191.559 583.34 192.352C580.973 193.164 578.136 193.317 575.335 192.759C572.529 192.229 569.936 191.096 568.02 189.469C566.077 187.864 564.923 185.836 564.267 184.097C563.611 182.339 563.416 180.827 563.365 179.796C563.32 178.759 563.42 178.187 563.487 178.191C563.655 178.171 563.529 180.516 564.913 183.836C565.62 185.463 566.763 187.316 568.601 188.769C570.413 190.244 572.84 191.283 575.516 191.788C578.188 192.321 580.835 192.199 583.063 191.487C585.301 190.791 587.096 189.579 588.417 188.383C591.061 185.939 591.988 183.796 592.127 183.883Z" fill="white"/>
<path d="M610.861 546.251C610.861 546.443 474.105 546.599 305.445 546.599C136.728 546.599 0 546.443 0 546.251C0 546.06 136.728 545.904 305.445 545.904C474.105 545.904 610.861 546.06 610.861 546.251Z" fill="#17282F"/>
<path d="M347.579 389.672H22.4402V135.144H347.579V389.672Z" fill="#FAFAF9"/>
<path d="M347.579 389.672C347.576 387.283 347.464 288.692 347.291 135.144L347.579 135.432C254.925 135.448 142.989 135.468 22.4683 135.491H22.4402L22.7881 135.144C22.7751 226.928 22.7626 313.723 22.7522 389.672L22.4402 389.36C215.457 389.545 344.844 389.669 347.579 389.672C344.845 389.675 215.457 389.799 22.4402 389.984H22.1293L22.1287 389.672C22.1183 313.723 22.1063 226.928 22.0933 135.144V134.797H22.4402H22.4683C142.989 134.819 254.925 134.84 347.579 134.856H347.867V135.144C347.693 288.692 347.581 387.284 347.579 389.672Z" fill="#17282F"/>
<path d="M83.9709 260.463V264.696H81.2053V260.429L76.5798 252.748H79.5157L82.7074 258.056L85.899 252.748H88.6137L83.9709 260.463Z" fill="#17282F"/>
<path d="M95.2656 260.104C95.2656 258.517 94.2584 257.561 92.927 257.561C91.5958 257.561 90.5718 258.517 90.5718 260.104C90.5718 261.692 91.5958 262.648 92.927 262.648C94.2584 262.648 95.2656 261.692 95.2656 260.104ZM87.8745 260.104C87.8745 257.34 90.0078 255.377 92.927 255.377C95.8458 255.377 97.9625 257.34 97.9625 260.104C97.9625 262.871 95.8458 264.833 92.927 264.833C90.0078 264.833 87.8745 262.871 87.8745 260.104Z" fill="#17282F"/>
<path d="M108.984 255.513V264.696H106.458V263.604C105.758 264.407 104.734 264.833 103.608 264.833C101.304 264.833 99.6816 263.536 99.6816 260.703V255.513H102.345V260.309C102.345 261.845 103.028 262.528 104.205 262.528C105.434 262.528 106.322 261.743 106.322 260.053V255.513H108.984Z" fill="#17282F"/>
<path d="M117.156 255.377V257.835C116.934 257.817 116.763 257.8 116.558 257.8C115.09 257.8 114.117 258.603 114.117 260.36V264.696H111.455V255.513H113.997V256.725C114.647 255.837 115.739 255.377 117.156 255.377Z" fill="#17282F"/>
<path d="M133.349 258.721C133.349 256.452 131.745 254.899 129.611 254.899C127.477 254.899 125.872 256.452 125.872 258.721C125.872 260.992 127.477 262.545 129.611 262.545C131.745 262.545 133.349 260.992 133.349 258.721ZM123.074 258.721C123.074 255.172 125.839 252.543 129.611 252.543C133.367 252.543 136.148 255.155 136.148 258.721C136.148 262.289 133.367 264.901 129.611 264.901C125.839 264.901 123.074 262.272 123.074 258.721Z" fill="#17282F"/>
<path d="M143.737 255.377V257.835C143.516 257.817 143.345 257.8 143.14 257.8C141.672 257.8 140.7 258.603 140.7 260.36V264.696H138.036V255.513H140.58V256.725C141.228 255.837 142.321 255.377 143.737 255.377Z" fill="#17282F"/>
<path d="M151.979 260.104C151.979 258.517 150.955 257.561 149.641 257.561C148.309 257.561 147.285 258.517 147.285 260.104C147.285 261.692 148.309 262.648 149.641 262.648C150.955 262.648 151.979 261.692 151.979 260.104ZM154.591 252.031V264.696H152.048V263.637C151.383 264.44 150.409 264.833 149.18 264.833C146.585 264.833 144.588 262.989 144.588 260.104C144.588 257.22 146.585 255.377 149.18 255.377C150.307 255.377 151.263 255.735 151.928 256.487V252.031H154.591Z" fill="#17282F"/>
<path d="M159.007 259.303H163.531C163.341 258.141 162.472 257.391 161.277 257.391C160.064 257.391 159.195 258.125 159.007 259.303ZM165.988 260.856H159.04C159.297 261.999 160.269 262.699 161.669 262.699C162.643 262.699 163.341 262.409 163.975 261.812L165.391 263.348C164.537 264.321 163.256 264.833 161.601 264.833C158.425 264.833 156.361 262.836 156.361 260.104C156.361 257.356 158.46 255.377 161.26 255.377C163.956 255.377 166.039 257.185 166.039 260.139C166.039 260.344 166.005 260.633 165.988 260.856Z" fill="#17282F"/>
<path d="M173.511 255.377V257.835C173.288 257.817 173.117 257.8 172.913 257.8C171.445 257.8 170.472 258.603 170.472 260.36V264.696H167.809V255.513H170.352V256.725C171.001 255.837 172.093 255.377 173.511 255.377Z" fill="#17282F"/>
<path d="M179.992 255.513H182.655V264.696H179.992V255.513ZM179.668 252.748C179.668 251.911 180.333 251.263 181.323 251.263C182.313 251.263 182.979 251.877 182.979 252.696C182.979 253.584 182.313 254.233 181.323 254.233C180.333 254.233 179.668 253.584 179.668 252.748Z" fill="#17282F"/>
<path d="M184.239 263.843L185.127 261.932C185.947 262.46 187.192 262.819 188.319 262.819C189.548 262.819 190.008 262.495 190.008 261.983C190.008 260.48 184.461 262.017 184.461 258.347C184.461 256.605 186.032 255.377 188.712 255.377C189.975 255.377 191.375 255.667 192.245 256.179L191.357 258.073C190.452 257.561 189.548 257.391 188.712 257.391C187.516 257.391 187.005 257.767 187.005 258.244C187.005 259.815 192.552 258.296 192.552 261.913C192.552 263.621 190.965 264.833 188.216 264.833C186.663 264.833 185.092 264.407 184.239 263.843Z" fill="#17282F"/>
<path d="M198.452 258.721C198.452 255.12 201.217 252.543 204.939 252.543C207.004 252.543 208.728 253.295 209.855 254.659L208.079 256.297C207.277 255.377 206.269 254.899 205.075 254.899C202.839 254.899 201.251 256.469 201.251 258.721C201.251 260.975 202.839 262.545 205.075 262.545C206.269 262.545 207.277 262.068 208.079 261.129L209.855 262.768C208.728 264.151 207.004 264.901 204.921 264.901C201.217 264.901 198.452 262.324 198.452 258.721Z" fill="#17282F"/>
<path d="M217.905 260.104C217.905 258.517 216.897 257.561 215.567 257.561C214.235 257.561 213.211 258.517 213.211 260.104C213.211 261.692 214.235 262.648 215.567 262.648C216.897 262.648 217.905 261.692 217.905 260.104ZM210.513 260.104C210.513 257.34 212.647 255.377 215.567 255.377C218.485 255.377 220.601 257.34 220.601 260.104C220.601 262.871 218.485 264.833 215.567 264.833C212.647 264.833 210.513 262.871 210.513 260.104Z" fill="#17282F"/>
<path d="M231.76 259.439V264.696H229.097V259.849C229.097 258.364 228.415 257.681 227.237 257.681C225.957 257.681 225.035 258.465 225.035 260.156V264.696H222.372V255.513H224.916V256.588C225.633 255.803 226.708 255.377 227.953 255.377C230.121 255.377 231.76 256.64 231.76 259.439Z" fill="#17282F"/>
<path d="M242.133 255.513H244.796V264.696H242.133V255.513ZM241.809 252.748C241.809 251.911 242.475 251.263 243.465 251.263C244.455 251.263 245.12 251.877 245.12 252.696C245.12 253.584 244.455 254.233 243.465 254.233C242.475 254.233 241.809 253.584 241.809 252.748ZM237.081 255.325V255.717H239.436V257.767H237.149V264.696H234.487V257.767H233.069V255.717H234.487V255.308C234.487 253.243 235.749 251.895 238.036 251.895C238.788 251.895 239.573 252.048 240.068 252.389L239.368 254.319C239.079 254.113 238.703 253.993 238.293 253.993C237.508 253.993 237.081 254.42 237.081 255.325Z" fill="#17282F"/>
<path d="M252.967 255.377V257.835C252.744 257.817 252.573 257.8 252.368 257.8C250.9 257.8 249.928 258.603 249.928 260.36V264.696H247.265V255.513H249.808V256.725C250.457 255.837 251.549 255.377 252.967 255.377Z" fill="#17282F"/>
<path d="M270.067 259.439V264.696H267.404V259.849C267.404 258.364 266.739 257.681 265.663 257.681C264.468 257.681 263.632 258.449 263.632 260.088V264.696H260.969V259.849C260.969 258.364 260.337 257.681 259.228 257.681C258.051 257.681 257.213 258.449 257.213 260.088V264.696H254.551V255.513H257.093V256.572C257.777 255.787 258.801 255.377 259.979 255.377C261.259 255.377 262.352 255.872 263 256.879C263.733 255.94 264.929 255.377 266.311 255.377C268.496 255.377 270.067 256.64 270.067 259.439Z" fill="#17282F"/>
<path d="M274.513 259.303H279.037C278.849 258.141 277.979 257.391 276.784 257.391C275.572 257.391 274.701 258.125 274.513 259.303ZM281.495 260.856H274.548C274.804 261.999 275.777 262.699 277.176 262.699C278.149 262.699 278.849 262.409 279.481 261.812L280.897 263.348C280.044 264.321 278.764 264.833 277.108 264.833C273.933 264.833 271.868 262.836 271.868 260.104C271.868 257.356 273.968 255.377 276.767 255.377C279.464 255.377 281.547 257.185 281.547 260.139C281.547 260.344 281.512 260.633 281.495 260.856Z" fill="#17282F"/>
<path d="M290.059 260.104C290.059 258.517 289.035 257.561 287.72 257.561C286.389 257.561 285.365 258.517 285.365 260.104C285.365 261.692 286.389 262.648 287.72 262.648C289.035 262.648 290.059 261.692 290.059 260.104ZM292.671 252.031V264.696H290.127V263.637C289.461 264.44 288.488 264.833 287.259 264.833C284.665 264.833 282.668 262.989 282.668 260.104C282.668 257.22 284.665 255.377 287.259 255.377C288.387 255.377 289.341 255.735 290.007 256.487V252.031H292.671Z" fill="#17282F"/>
<path d="M294.781 252.748H297.956L297.427 260.548H295.311L294.781 252.748ZM294.731 263.28C294.731 262.409 295.413 261.76 296.369 261.76C297.325 261.76 298.008 262.409 298.008 263.28C298.008 264.133 297.325 264.833 296.369 264.833C295.413 264.833 294.731 264.133 294.731 263.28Z" fill="#17282F"/>
<path d="M102.889 280.487H98.9895V279.472H107.96V280.487H104.061V290.567H102.889V280.487Z" fill="#17282F"/>
<path d="M117.26 285.733V290.567H116.135V285.844C116.135 284.084 115.216 283.181 113.631 283.181C111.84 283.181 110.714 284.291 110.714 286.192V290.567H109.59V278.807H110.714V283.688C111.333 282.721 112.427 282.167 113.836 282.167C115.865 282.167 117.26 283.34 117.26 285.733Z" fill="#17282F"/>
<path d="M125.482 288.063V286.699H122.867C121.25 286.699 120.727 287.333 120.727 288.188C120.727 289.156 121.504 289.757 122.835 289.757C124.103 289.757 125.038 289.156 125.482 288.063ZM126.608 285.4V290.567H125.53V289.267C125.022 290.123 124.04 290.645 122.661 290.645C120.775 290.645 119.618 289.663 119.618 288.221C119.618 286.937 120.442 285.859 122.835 285.859H125.482V285.352C125.482 283.925 124.674 283.149 123.12 283.149C122.042 283.149 121.028 283.529 120.347 284.131L119.84 283.292C120.68 282.579 121.916 282.167 123.231 282.167C125.387 282.167 126.608 283.244 126.608 285.4Z" fill="#17282F"/>
<path d="M137.333 285.733V290.567H136.208V285.844C136.208 284.084 135.288 283.181 133.704 283.181C131.913 283.181 130.787 284.291 130.787 286.192V290.567H129.663V282.231H130.74V283.768C131.342 282.753 132.468 282.167 133.909 282.167C135.939 282.167 137.333 283.34 137.333 285.733Z" fill="#17282F"/>
<path d="M143.479 286.383L141.513 288.188V290.567H140.388V278.807H141.513V286.779L146.489 282.231H147.885L144.319 285.637L148.217 290.567H146.839L143.479 286.383Z" fill="#17282F"/>
<path d="M148.5 289.616L149.007 288.728C149.672 289.251 150.797 289.663 151.971 289.663C153.556 289.663 154.205 289.125 154.205 288.3C154.205 286.129 148.8 287.841 148.8 284.544C148.8 283.181 149.973 282.167 152.097 282.167C153.175 282.167 154.348 282.467 155.045 282.944L154.553 283.847C153.824 283.34 152.953 283.133 152.097 283.133C150.591 283.133 149.925 283.72 149.925 284.513C149.925 286.763 155.331 285.068 155.331 288.268C155.331 289.711 154.063 290.645 151.892 290.645C150.512 290.645 149.181 290.201 148.5 289.616Z" fill="#17282F"/>
<path d="M162.965 280.487V284.845H168.701V285.859H162.965V290.567H161.792V279.472H169.399V280.487H162.965Z" fill="#17282F"/>
<path d="M177.796 286.399C177.796 284.449 176.48 283.149 174.705 283.149C172.931 283.149 171.6 284.449 171.6 286.399C171.6 288.348 172.931 289.647 174.705 289.647C176.48 289.647 177.796 288.348 177.796 286.399ZM170.459 286.399C170.459 283.925 172.265 282.167 174.705 282.167C177.147 282.167 178.937 283.925 178.937 286.399C178.937 288.871 177.147 290.645 174.705 290.645C172.265 290.645 170.459 288.871 170.459 286.399Z" fill="#17282F"/>
<path d="M185.432 282.167V283.26L185.163 283.244C183.419 283.244 182.357 284.353 182.357 286.319V290.567H181.232V282.231H182.309V283.863C182.833 282.753 183.895 282.167 185.432 282.167Z" fill="#17282F"/>
<path d="M195.777 286.732V290.567H194.62V286.732L190.181 279.472H191.435L195.237 285.7L199.041 279.472H200.215L195.777 286.732Z" fill="#17282F"/>
<path d="M207.343 286.399C207.343 284.449 206.028 283.149 204.253 283.149C202.477 283.149 201.147 284.449 201.147 286.399C201.147 288.348 202.477 289.647 204.253 289.647C206.028 289.647 207.343 288.348 207.343 286.399ZM200.005 286.399C200.005 283.925 201.812 282.167 204.253 282.167C206.693 282.167 208.484 283.925 208.484 286.399C208.484 288.871 206.693 290.645 204.253 290.645C201.812 290.645 200.005 288.871 200.005 286.399Z" fill="#17282F"/>
<path d="M218.291 282.231V290.567H217.213V289.045C216.627 290.06 215.549 290.645 214.219 290.645C212.095 290.645 210.7 289.457 210.7 287.064V282.231H211.825V286.953C211.825 288.728 212.744 289.631 214.329 289.631C216.072 289.631 217.167 288.507 217.167 286.604V282.231H218.291Z" fill="#17282F"/>
<path d="M225.641 282.167V283.26L225.371 283.244C223.628 283.244 222.565 284.353 222.565 286.319V290.567H221.441V282.231H222.519V283.863C223.041 282.753 224.104 282.167 225.641 282.167Z" fill="#17282F"/>
<path d="M241.676 285.019C241.676 282.372 239.695 280.423 237.032 280.423C234.353 280.423 232.357 282.372 232.357 285.019C232.357 287.667 234.353 289.616 237.032 289.616C239.695 289.616 241.676 287.667 241.676 285.019ZM231.2 285.019C231.2 281.787 233.672 279.377 237.032 279.377C240.361 279.377 242.849 281.771 242.849 285.019C242.849 288.268 240.361 290.661 237.032 290.661C233.672 290.661 231.2 288.252 231.2 285.019Z" fill="#17282F"/>
<path d="M249.437 282.167V283.26L249.168 283.244C247.424 283.244 246.363 284.353 246.363 286.319V290.567H245.237V282.231H246.315V283.863C246.839 282.753 247.9 282.167 249.437 282.167Z" fill="#17282F"/>
<path d="M257.883 286.399C257.883 284.449 256.551 283.149 254.792 283.149C253.016 283.149 251.685 284.449 251.685 286.399C251.685 288.348 253.016 289.647 254.792 289.647C256.551 289.647 257.883 288.348 257.883 286.399ZM258.992 278.807V290.567H257.915V288.917C257.232 290.044 256.076 290.645 254.697 290.645C252.319 290.645 250.544 288.917 250.544 286.399C250.544 283.879 252.319 282.167 254.697 282.167C256.028 282.167 257.169 282.737 257.867 283.815V278.807H258.992Z" fill="#17282F"/>
<path d="M262.411 285.908H268.323C268.18 284.275 266.992 283.133 265.359 283.133C263.743 283.133 262.553 284.275 262.411 285.908ZM269.384 286.747H262.411C262.537 288.491 263.869 289.647 265.692 289.647C266.705 289.647 267.609 289.283 268.244 288.553L268.877 289.283C268.132 290.171 266.976 290.645 265.66 290.645C263.061 290.645 261.285 288.871 261.285 286.399C261.285 283.925 263.013 282.167 265.359 282.167C267.704 282.167 269.4 283.895 269.4 286.399C269.4 286.493 269.384 286.62 269.384 286.747Z" fill="#17282F"/>
<path d="M275.895 282.167V283.26L275.625 283.244C273.881 283.244 272.82 284.353 272.82 286.319V290.567H271.695V282.231H272.772V283.863C273.296 282.753 274.357 282.167 275.895 282.167Z" fill="#17282F"/>
<path d="M233.339 355.024H136.68C125.604 355.024 116.625 346.045 116.625 334.969C116.625 323.895 125.604 314.915 136.68 314.915H233.339C244.416 314.915 253.395 323.895 253.395 334.969C253.395 346.045 244.416 355.024 233.339 355.024Z" fill="#184160"/>
<path d="M187.703 183.657C174.923 183.657 164.527 194.055 164.527 206.833C164.527 219.613 174.923 230.009 187.703 230.009C200.481 230.009 210.879 219.613 210.879 206.833C210.879 194.055 200.481 183.657 187.703 183.657ZM187.703 232.676C173.452 232.676 161.86 221.083 161.86 206.833C161.86 192.584 173.452 180.991 187.703 180.991C201.952 180.991 213.545 192.584 213.545 206.833C213.545 221.083 201.952 232.676 187.703 232.676Z" fill="#102C44"/>
<path d="M185.828 214.797C185.513 214.797 185.2 214.687 184.948 214.465C182.687 212.476 178.821 209.028 178.325 208.284C177.917 207.671 178.083 206.843 178.695 206.435C179.3 206.029 180.115 206.188 180.529 206.783C180.889 207.235 183.339 209.477 185.796 211.656L198.881 199.236C199.415 198.729 200.259 198.749 200.767 199.285C201.273 199.819 201.252 200.663 200.717 201.169L186.747 214.431C186.489 214.675 186.159 214.797 185.828 214.797Z" fill="#102C44"/>
<path d="M347.579 160.009C347.579 160.2 274.971 160.356 185.425 160.356C95.8485 160.356 23.2563 160.2 23.2563 160.009C23.2563 159.817 95.8485 159.661 185.425 159.661C274.971 159.661 347.579 159.817 347.579 160.009Z" fill="#17282F"/>
<path d="M35.8344 147.225C35.8344 148.268 34.9891 149.113 33.9469 149.113C32.9041 149.113 32.0593 148.268 32.0593 147.225C32.0593 146.184 32.9041 145.339 33.9469 145.339C34.9891 145.339 35.8344 146.184 35.8344 147.225Z" fill="#17282F"/>
<path d="M42.8746 147.225C42.8746 148.268 42.0298 149.113 40.9875 149.113C39.9454 149.113 39.1006 148.268 39.1006 147.225C39.1006 146.184 39.9454 145.339 40.9875 145.339C42.0298 145.339 42.8746 146.184 42.8746 147.225Z" fill="#17282F"/>
<path d="M49.8074 147.225C49.8074 148.268 48.9626 149.113 47.9198 149.113C46.8777 149.113 46.0334 148.268 46.0334 147.225C46.0334 146.184 46.8777 145.339 47.9198 145.339C48.9626 145.339 49.8074 146.184 49.8074 147.225Z" fill="#17282F"/>
<path d="M561.32 306.143C561.32 306.143 577.503 296.297 581.149 299.189C586.412 303.365 588.167 310.413 588.167 310.413C588.167 310.413 596.713 277.815 604.869 279.052C609.548 279.76 607.252 283.407 605.156 287.983C603.209 292.232 599.888 307.828 599.888 307.828C599.888 307.828 615.352 289.48 619.896 289.811C623.413 290.068 623.919 293.16 618.861 298.12C613.805 303.079 605.403 318.703 605.403 318.703C605.403 318.703 616.236 308.604 620.712 308.549C624.281 308.505 626.587 310.983 621.967 314.995C617.347 319.005 610.357 322.015 606.628 329.268C602.032 338.211 592.232 360.501 592.232 360.501L557.932 348.357C557.932 348.357 552.349 325.604 552.127 320.075C552.127 320.075 552.597 308.395 552.531 306.313C552.464 304.233 557.981 303.7 559.656 307.693C561.331 311.687 560.569 315.876 561.249 318.532C561.929 321.188 563.137 323.649 565.079 324.837C567.021 326.024 571.963 326.107 573.225 324.637C574.488 323.169 576.017 318.896 576.351 316.268C576.684 313.639 576.255 309.487 576.255 309.487C576.255 309.487 562.015 315.273 561.32 306.143Z" fill="#F8A58D"/>
<path d="M175.931 412.309L152.096 403.381C152.096 403.381 127.831 389.175 123.339 394.22C123.339 394.22 118.539 391.933 116.406 397.052C115.171 400.017 119.248 404.323 119.248 404.323C119.248 404.323 117.979 405.609 119.989 409.964C121.998 414.319 145.032 428.053 145.032 428.053C145.032 428.053 174.977 444.384 187.087 452.194L207.98 423.78L205.075 422.693C205.075 422.693 203.351 408.532 197.553 404.756C191.247 400.647 183.636 389.529 181.961 385.176C180.285 380.82 172.247 382.831 173.587 391.875C174.927 400.919 181.961 403.264 181.291 409.295C180.621 415.324 175.931 412.309 175.931 412.309Z" fill="#F8A58D"/>
<path d="M139.395 415.615C139.3 415.781 134.657 413.357 129.025 410.2C123.39 407.043 118.901 404.348 118.994 404.181C119.088 404.013 123.73 406.437 129.364 409.595C134.997 412.751 139.488 415.446 139.395 415.615Z" fill="#F68260"/>
<path d="M151.025 408.913C150.984 408.999 149.356 408.34 146.748 407.211C144.143 406.076 140.567 404.449 136.7 402.473C132.835 400.495 129.429 398.519 127.046 396.959C125.859 396.171 124.909 395.519 124.281 395.027C123.647 394.544 123.31 394.259 123.339 394.22C123.401 394.131 124.87 395.093 127.305 396.54C129.741 397.987 133.166 399.884 137.017 401.855C140.868 403.824 144.403 405.519 146.955 406.764C149.507 408.008 151.067 408.825 151.025 408.913Z" fill="#F68260"/>
<path d="M156.04 422.043C156.013 422.086 155.263 421.675 153.928 420.898C152.499 420.043 150.604 418.911 148.311 417.543L148.248 417.505L148.213 417.429C147.16 415.155 145.852 412.477 144.167 409.683C143.313 408.307 142.377 406.823 141.135 405.676C139.896 404.525 137.923 404.325 136.439 405.323C136.12 405.503 135.736 405.883 135.691 406.007L135.745 406.165L135.841 406.463C135.901 406.657 135.977 406.857 136.051 407.056C136.339 407.852 136.653 408.635 136.96 409.405C137.589 410.939 138.199 412.427 138.784 413.856C139.969 416.683 141.057 419.277 142.008 421.544L141.964 421.475C143.923 423.769 145.543 425.668 146.756 427.091C147.264 427.711 147.687 428.225 148.036 428.652C148.323 429.015 148.464 429.215 148.444 429.232C148.424 429.249 148.244 429.084 147.921 428.753C147.541 428.352 147.084 427.869 146.533 427.288C145.276 425.904 143.596 424.057 141.567 421.825L141.541 421.796L141.523 421.755C140.531 419.532 139.397 416.949 138.185 414.11C137.588 412.68 136.967 411.193 136.327 409.66C136.015 408.888 135.699 408.105 135.4 407.293C135.325 407.091 135.249 406.889 135.183 406.675L135.079 406.355C135.041 406.24 135.016 406.033 135.009 405.879C135.133 405.457 135.324 405.371 135.495 405.169C135.676 405.009 135.865 404.864 136.064 404.739C136.921 404.193 137.935 403.912 138.939 404C139.948 404.065 140.864 404.548 141.577 405.157C142.955 406.448 143.852 407.936 144.717 409.351C146.4 412.204 147.667 414.907 148.676 417.228L148.577 417.115C150.821 418.562 152.676 419.756 154.075 420.658C155.365 421.511 156.067 422.001 156.04 422.043Z" fill="#F68260"/>
<path d="M179.936 422.272C179.904 422.368 178.792 422.057 177.008 421.555C175.227 421.07 172.747 420.379 169.961 420.31C167.183 420.246 164.709 421.028 163.169 421.973C161.604 422.908 160.913 423.863 160.817 423.78C160.759 423.753 161.323 422.66 162.903 421.561C164.456 420.455 167.06 419.548 169.976 419.616C172.885 419.689 175.399 420.479 177.155 421.086C178.915 421.712 179.965 422.186 179.936 422.272Z" fill="#F68260"/>
<path d="M178.144 415.976C178.304 416.096 177.711 417.128 177.135 418.452C176.549 419.772 176.192 420.907 175.997 420.869C175.813 420.843 175.877 419.579 176.499 418.172C177.113 416.763 178.001 415.86 178.144 415.976Z" fill="#F68260"/>
<path d="M315.516 302.668C317.161 291.435 330.24 275.328 341.816 275.311C335.181 265.693 335.079 252.161 341.568 242.448C346.035 235.764 353.237 230.851 356.292 223.441C359.748 215.059 357.096 205.588 357.425 196.552C357.908 183.325 364.789 171.247 371.492 159.757C377.627 149.237 385.113 137.705 397.189 135.121C404.832 133.487 412.756 135.899 419.929 138.953C454.257 153.575 480.952 184.388 490.115 219.965C492.307 228.483 493.776 237.696 499.711 244.277C505.997 251.248 517.005 255.029 518.892 264.148C520.244 270.685 516.047 277.26 516.676 283.904C517.204 289.468 527.627 305.689 530.029 310.757C534.171 319.489 532.673 328.923 528.457 337.62C524.243 346.316 513.515 354.787 503.996 357.155L397.592 321.699C387.581 327.397 377.611 349.444 366.117 350.797C354.625 352.152 340.604 357.155 329.547 345.055C317.956 332.372 313.871 313.901 315.516 302.668Z" fill="#17282F"/>
<path d="M491.948 196.836C490.757 205.74 493.197 220.461 498.064 228.069C501.331 233.175 506.781 236.496 512.159 239.417C517.536 242.337 523.168 245.14 527.244 249.651C531.321 254.161 533.507 260.925 530.783 266.328C540.368 269.901 544.668 282.112 541.151 291.556C537.633 301 527.991 307.352 517.919 309.241L474.032 296.039L464.396 240.036L489.728 196.836" fill="#17282F"/>
<path d="M497.333 253.931C497.341 253.911 497.636 254.039 498.191 254.304C498.732 254.592 499.595 254.917 500.588 255.548C502.623 256.724 505.435 258.763 508.281 261.961C509.729 263.537 511.072 265.481 512.38 267.655C513.583 269.88 514.8 272.339 515.573 275.12C517.283 280.601 517.657 287.261 515.692 293.809L515.532 293.408C518.059 294.815 520.499 296.652 522.673 298.833C528.276 304.391 531.476 311.615 532.243 318.372C532.991 325.184 531.369 331.353 529.103 335.933C526.82 340.555 523.989 343.697 521.896 345.629C520.827 346.583 519.965 347.288 519.34 347.709C518.728 348.147 518.4 348.365 518.387 348.347C518.372 348.327 518.673 348.069 519.256 347.599C519.851 347.143 520.677 346.408 521.709 345.433C523.729 343.457 526.467 340.301 528.66 335.72C530.839 331.18 532.373 325.107 531.608 318.447C530.823 311.835 527.671 304.767 522.181 299.324C520.052 297.187 517.667 295.388 515.199 294.007L514.957 293.872L515.039 293.604C516.967 287.216 516.636 280.692 514.995 275.292C514.253 272.552 513.075 270.124 511.912 267.919C510.647 265.768 509.347 263.832 507.939 262.259C505.176 259.063 502.441 256.989 500.46 255.759C499.495 255.1 498.657 254.741 498.135 254.417C497.6 254.117 497.324 253.949 497.333 253.931Z" fill="#33535F"/>
<path d="M367.508 311.925C367.508 311.925 347.9 317.889 341.025 327.888C336.164 334.961 286.376 442.78 286.376 442.78L210.799 420.056L183.779 455.745L267.867 502.355C283.457 510.997 302.419 510.913 317.933 502.134C326.536 497.268 333.547 490.016 338.12 481.252L359.501 440.288L367.508 311.925Z" fill="#20517A"/>
<path d="M347.444 546.76L359.244 495.896L350.303 458.963C344.551 439.944 339.615 408.965 345.872 384.015L366.773 312.264L389.753 301.696L442.341 292.651C444.365 293.324 497.333 308.284 497.333 308.284C504.667 309.988 507.609 311.156 507.609 311.156L513.681 350.433L495.42 415.17L487.468 479.674L504.939 546.76H347.444Z" fill="#20517A"/>
<path d="M377.836 307.177L393.085 300.352L461.819 301.309L478.073 310.744C478.073 310.744 421.291 373.417 407.04 375.489C371.196 380.701 377.836 307.177 377.836 307.177Z" fill="#F8A58D"/>
<path d="M506.116 310.613C506.116 310.613 516.411 312.929 525.236 331.756C534.063 350.583 548.328 402.981 548.328 402.981L554.428 347.455L604.121 352.92L594.504 485.628C594.504 485.628 576.919 511.132 547.501 508.779C518.084 506.424 480.739 413.439 480.739 413.439L506.116 310.613Z" fill="#20517A"/>
<path d="M540.573 470.787C540.562 470.786 540.56 470.677 540.562 470.465C540.574 470.211 540.586 469.903 540.604 469.523C540.656 468.64 540.729 467.435 540.821 465.912C541.009 462.776 541.384 458.244 541.902 452.652C542.938 441.464 544.836 426.055 547.157 409.076C549.479 392.092 551.452 376.707 552.61 365.537C553.192 359.955 553.64 355.433 553.912 352.305C554.058 350.788 554.173 349.585 554.26 348.705C554.303 348.329 554.338 348.021 554.368 347.771C554.396 347.561 554.416 347.453 554.428 347.455C554.44 347.455 554.444 347.564 554.438 347.776C554.428 348.028 554.415 348.339 554.399 348.716C554.345 349.599 554.273 350.804 554.181 352.327C553.992 355.463 553.619 359.993 553.099 365.587C552.063 376.776 550.166 392.185 547.844 409.169C545.522 426.146 543.552 441.532 542.392 452.7C541.81 458.284 541.361 462.805 541.09 465.935C540.944 467.452 540.828 468.653 540.742 469.534C540.698 469.91 540.664 470.217 540.634 470.469C540.606 470.68 540.586 470.788 540.573 470.787Z" fill="#17282F"/>
<path d="M287.236 471.416C287.192 471.435 286.999 471.081 286.685 470.423C286.367 469.768 285.967 468.792 285.532 467.563C284.656 465.11 283.745 461.592 283.355 457.622C282.975 453.646 283.195 450.022 283.583 447.446C283.775 446.156 283.977 445.122 284.167 444.416C284.347 443.711 284.469 443.327 284.516 443.337C284.627 443.36 284.327 444.937 284.071 447.505C283.811 450.07 283.672 453.64 284.045 457.555C284.431 461.465 285.252 464.944 285.999 467.411C286.743 469.881 287.34 471.372 287.236 471.416Z" fill="#17282F"/>
<path d="M295.595 472.646C295.556 472.676 295.247 472.323 294.719 471.656C294.183 470.996 293.469 469.992 292.644 468.713C290.992 466.162 289.003 462.422 287.467 458.027C285.943 453.628 285.18 449.46 284.892 446.434C284.745 444.919 284.681 443.689 284.691 442.84C284.692 441.989 284.715 441.52 284.763 441.519C284.879 441.515 284.965 443.388 285.379 446.375C285.789 449.36 286.617 453.455 288.123 457.799C289.639 462.137 291.532 465.861 293.063 468.457C294.592 471.056 295.688 472.577 295.595 472.646Z" fill="#17282F"/>
<path d="M354.425 354.08C354.449 354.087 354.361 354.457 354.173 355.156C353.963 355.913 353.68 356.928 353.327 358.203C352.56 360.911 351.481 364.717 350.157 369.391C347.575 378.845 343.98 391.976 342.259 406.844C341.399 414.268 341.227 421.416 341.967 427.846C342.649 434.281 344.069 439.965 345.467 444.657C346.873 449.353 348.204 453.097 349.115 455.686C349.553 456.933 349.903 457.927 350.164 458.669C350.397 459.353 350.509 459.716 350.488 459.725C350.465 459.733 350.309 459.386 350.032 458.719C349.741 457.988 349.351 457.009 348.86 455.78C347.872 453.217 346.468 449.495 344.997 444.798C343.535 440.11 342.055 434.401 341.331 427.916C340.549 421.439 340.704 414.222 341.568 406.765C343.299 391.827 346.98 378.684 349.684 369.256C351.061 364.54 352.239 360.744 353.067 358.125C353.475 356.865 353.799 355.864 354.04 355.116C354.271 354.429 354.401 354.073 354.425 354.08Z" fill="#17282F"/>
<path d="M493.388 441.519C493.377 441.522 493.316 441.412 493.208 441.192C493.085 440.934 492.932 440.61 492.741 440.207C492.325 439.286 491.745 438.01 491.011 436.388C490.277 434.722 489.337 432.701 488.335 430.317C487.372 427.907 486.28 425.174 485.073 422.155C483.9 419.117 482.772 415.731 481.477 412.125C480.911 410.295 480.325 408.403 479.723 406.453C479.423 405.476 479.119 404.487 478.812 403.483C478.525 402.473 478.276 401.439 478.001 400.397C475.767 392.083 473.861 382.74 473.3 372.787C472.693 362.848 473.637 353.243 476.175 344.965C478.551 336.632 482.727 329.796 487.18 325.019C491.629 320.191 496.267 317.405 499.585 315.921C501.26 315.193 502.593 314.703 503.523 314.463C503.953 314.343 504.299 314.244 504.575 314.168C504.812 314.105 504.936 314.079 504.939 314.091C504.943 314.103 504.825 314.152 504.595 314.237C504.325 314.331 503.987 314.449 503.565 314.596C502.653 314.879 501.343 315.407 499.699 316.167C496.44 317.715 491.895 320.533 487.543 325.352C483.183 330.123 479.108 336.885 476.787 345.148C474.308 353.36 473.392 362.869 473.995 372.745C474.551 382.633 476.427 391.94 478.619 400.235C478.888 401.275 479.153 402.3 479.415 403.313C479.716 404.316 480.013 405.304 480.308 406.279C480.897 408.225 481.471 410.117 482.025 411.945C483.292 415.551 484.392 418.939 485.533 421.982C486.701 425.009 487.76 427.751 488.693 430.169C489.66 432.565 490.564 434.6 491.259 436.281C491.943 437.922 492.481 439.217 492.869 440.149C493.035 440.565 493.168 440.898 493.273 441.163C493.36 441.393 493.399 441.513 493.388 441.519Z" fill="#17282F"/>
<path d="M488.059 474.879L488.82 468.71C488.581 470.913 488.339 473.062 488.059 474.879ZM490.033 458.867L492.417 439.523C492.425 439.537 492.433 439.555 492.441 439.571C492.3 440.937 491.003 453.335 490.033 458.865" fill="#A7A9A8"/>
<path d="M484.219 480.957C484.175 480.957 484.131 480.956 484.087 480.955C482.267 480.864 479.7 474.81 479.051 473.108C467.981 444.058 467.952 412.795 474.249 382.361C475.145 388.753 476.499 394.808 478.001 400.397C478.276 401.439 478.525 402.473 478.812 403.483C479.119 404.487 479.423 405.476 479.723 406.453C480.244 408.139 480.752 409.783 481.247 411.38L480.739 413.439C480.739 413.439 485.269 424.719 492.417 439.522L490.033 458.867C489.564 461.536 489.2 465.193 488.82 468.709L488.059 474.879C488.004 475.239 487.947 475.586 487.889 475.919C487.497 478.152 486.437 480.957 484.219 480.957Z" fill="#091926" fill-opacity="0.5"/>
<path d="M492.441 439.57C492.433 439.555 492.425 439.537 492.417 439.522C485.269 424.719 480.739 413.439 480.739 413.439L481.247 411.38C481.324 411.629 481.401 411.877 481.477 412.125C482.772 415.731 483.9 419.117 485.073 422.155C486.28 425.174 487.372 427.907 488.335 430.317C489.337 432.701 490.277 434.722 491.011 436.388C491.584 437.653 492.063 438.709 492.444 439.548C492.443 439.556 492.443 439.563 492.441 439.57Z" fill="#091926" fill-opacity="0.5"/>
<path d="M492.444 439.548C492.063 438.71 491.584 437.653 491.011 436.388C490.277 434.723 489.337 432.701 488.335 430.317C487.372 427.907 486.28 425.174 485.073 422.155C483.9 419.117 482.772 415.731 481.477 412.125C481.401 411.877 481.324 411.629 481.247 411.38C480.752 409.783 480.244 408.139 479.723 406.453C479.423 405.476 479.119 404.487 478.812 403.483C478.525 402.473 478.276 401.439 478.001 400.397C476.499 394.808 475.145 388.753 474.249 382.361C474.315 382.044 474.381 381.725 474.449 381.408L474.583 382.379C476.631 396.641 480.337 408.32 484.719 420.556C487.08 427.151 492.453 439.448 492.453 439.448C492.453 439.448 492.451 439.482 492.444 439.548Z" fill="#0F191D"/>
<path d="M469.143 500.468C469.164 500.482 468.985 500.757 468.625 501.27C468.221 501.836 467.691 502.576 467.031 503.496C466.675 503.982 466.285 504.517 465.863 505.096C465.415 505.665 464.883 506.244 464.335 506.889C463.211 508.151 462.016 509.672 460.447 511.117C459.683 511.863 458.887 512.644 458.057 513.456C457.219 514.261 456.256 514.998 455.307 515.816C453.439 517.492 451.223 519.001 448.937 520.649C444.239 523.76 438.785 526.756 432.733 529.161C426.649 531.486 420.604 532.97 415.04 533.86C412.241 534.193 409.588 534.581 407.077 534.613C405.827 534.652 404.617 534.761 403.456 534.736C402.295 534.698 401.18 534.664 400.115 534.631C397.981 534.629 396.072 534.316 394.391 534.148C393.552 534.045 392.767 533.979 392.053 533.861C391.348 533.722 390.701 533.592 390.111 533.474C389.001 533.243 388.111 533.058 387.429 532.916C386.819 532.781 386.501 532.698 386.505 532.676C386.511 532.652 386.839 532.688 387.457 532.78C388.143 532.888 389.04 533.031 390.156 533.208C390.748 533.308 391.396 533.416 392.101 533.534C392.815 533.632 393.597 533.679 394.435 533.761C396.112 533.893 398.011 534.17 400.132 534.139C401.192 534.158 402.299 534.179 403.452 534.2C404.608 534.212 405.805 534.089 407.048 534.037C409.539 533.982 412.169 533.576 414.944 533.229C420.457 532.31 426.448 530.82 432.481 528.515C438.483 526.129 443.899 523.174 448.58 520.12C450.856 518.497 453.068 517.019 454.94 515.372C455.889 514.57 456.855 513.849 457.697 513.06C458.532 512.264 459.335 511.498 460.101 510.767C461.683 509.355 462.896 507.865 464.041 506.633C464.6 506.007 465.145 505.441 465.605 504.888C466.044 504.324 466.448 503.804 466.816 503.332C467.519 502.445 468.081 501.733 468.512 501.189C468.907 500.704 469.123 500.456 469.143 500.468Z" fill="#17282F"/>
<path d="M458.297 480.132C458.345 480.14 458.28 480.657 458.12 481.588C457.973 482.52 457.663 483.853 457.191 485.475C456.255 488.72 454.479 493.093 451.672 497.441C448.849 501.782 445.583 505.191 443.005 507.369C441.717 508.464 440.627 509.293 439.836 509.807C439.052 510.333 438.607 510.604 438.579 510.565C438.505 510.464 440.209 509.262 442.677 507.003C445.148 504.751 448.307 501.343 451.088 497.064C453.855 492.779 455.676 488.503 456.723 485.328C457.776 482.152 458.175 480.107 458.297 480.132Z" fill="#17282F"/>
<path d="M434.093 126.621C452.699 126.749 470.897 137.253 480.313 153.3C489.729 169.348 490.024 190.357 481.061 206.661C478.005 212.22 473.609 217.483 467.569 219.42C469.624 187.533 456.915 154.995 433.791 132.944" fill="#20517A"/>
<path d="M455.869 131.439C453.107 125.693 456.063 118.508 460.989 114.463C465.916 110.417 472.335 108.783 478.533 107.303C484.732 105.821 491.157 104.285 496.192 100.376C495.465 110.364 492.984 120.64 486.52 128.287C480.056 135.935 468.859 140.196 459.629 136.309" fill="#20517A"/>
<path d="M462.273 138.019C458.029 139.803 452.972 138.687 449.173 136.085C445.376 133.484 442.66 129.587 440.432 125.559C437.693 120.611 435.544 115.267 434.815 109.659C434.085 104.051 434.851 98.152 437.627 93.224C444.927 101 452.964 107.535 457.136 117.348C459.588 123.115 459.289 132.357 456.663 138.044" fill="#20517A"/>
<path d="M482.945 170.351C482.992 170.344 483.119 171.003 483.308 172.205C483.409 172.805 483.515 173.543 483.583 174.404C483.657 175.265 483.777 176.244 483.797 177.333C483.919 179.508 483.881 182.107 483.664 184.98C483.407 187.851 482.951 190.992 482.193 194.235C481.408 197.469 480.401 200.483 479.339 203.16C478.237 205.824 477.101 208.163 476.013 210.049C475.505 211.013 474.956 211.833 474.503 212.568C474.053 213.307 473.627 213.917 473.267 214.408C472.557 215.396 472.147 215.927 472.108 215.9C472.068 215.872 472.403 215.288 473.041 214.259C473.365 213.748 473.756 213.12 474.171 212.367C474.591 211.616 475.105 210.785 475.583 209.815C476.607 207.912 477.685 205.575 478.743 202.924C479.764 200.26 480.741 197.275 481.517 194.073C482.267 190.867 482.737 187.763 483.025 184.924C483.276 182.081 483.364 179.508 483.307 177.349C483.319 176.268 483.232 175.293 483.195 174.435C483.165 173.575 483.1 172.839 483.04 172.236C482.933 171.029 482.896 170.357 482.945 170.351Z" fill="#17282F"/>
<path d="M478.781 134.592C478.811 134.628 478.291 135.043 477.304 135.768C476.243 136.351 474.652 137.205 472.489 137.631C468.199 138.608 462.004 138.405 455.463 136.66L455.268 136.608L455.224 136.409C455.135 136.011 455.039 135.583 454.944 135.151C454.241 131.691 454.076 128.279 454.503 125.233C454.889 122.18 455.947 119.525 457.303 117.627C458.613 115.671 460.213 114.583 461.259 113.848C462.399 113.232 463.033 112.916 463.055 112.96C463.076 113.001 462.485 113.4 461.409 114.073C460.428 114.864 458.92 115.979 457.709 117.901C456.451 119.772 455.479 122.343 455.136 125.316C454.756 128.28 454.936 131.619 455.623 135.012C455.717 135.435 455.811 135.855 455.896 136.245L455.659 135.995C462.073 137.715 468.187 137.999 472.391 137.163C474.519 136.807 476.089 136.041 477.173 135.54C478.176 134.899 478.752 134.556 478.781 134.592Z" fill="#17282F"/>
<path d="M484.243 117.313C484.263 117.44 482.292 117.717 479.236 118.621C477.705 119.064 475.924 119.72 473.999 120.563C472.085 121.436 470.037 122.516 468.003 123.836C465.977 125.176 464.171 126.624 462.607 128.028C461.064 129.457 459.752 130.832 458.735 132.057C456.685 134.499 455.647 136.195 455.539 136.127C455.497 136.101 455.728 135.661 456.185 134.885C456.629 134.103 457.367 133.021 458.355 131.748C459.336 130.467 460.628 129.037 462.172 127.559C463.735 126.105 465.563 124.619 467.62 123.255C469.691 121.912 471.785 120.832 473.741 119.976C475.712 119.152 477.537 118.536 479.105 118.149C480.667 117.751 481.952 117.507 482.847 117.412C483.741 117.303 484.236 117.265 484.243 117.313Z" fill="#17282F"/>
<path d="M461.987 137.859C462.009 137.864 461.992 138.001 461.935 138.259C461.892 138.523 461.769 138.892 461.579 139.36C461.192 140.288 460.375 141.561 458.941 142.695C457.513 143.792 455.408 144.755 452.948 144.631C450.485 144.547 447.935 143.056 446.349 140.743C444.764 138.431 444.295 135.513 445.107 133.185C445.879 130.845 447.536 129.229 449.073 128.293C450.649 127.367 452.131 127.064 453.136 127.039C453.641 127.031 454.031 127.049 454.291 127.104C454.553 127.144 454.687 127.176 454.684 127.2C454.676 127.273 454.127 127.196 453.157 127.308C452.192 127.413 450.796 127.779 449.335 128.709C447.905 129.649 446.393 131.213 445.716 133.379C445.004 135.521 445.449 138.193 446.921 140.351C448.401 142.501 450.732 143.881 452.988 143.991C455.251 144.143 457.255 143.296 458.647 142.301C460.044 141.275 460.888 140.105 461.335 139.243C461.789 138.379 461.916 137.839 461.987 137.859Z" fill="#17282F"/>
<path d="M445.823 138.192C445.757 138.259 445.359 137.465 445.992 136.427C446.287 135.937 446.848 135.435 447.573 135.189C448.293 134.929 449.128 134.881 449.955 134.941C453.283 135.177 455.703 136.475 455.613 136.628C455.539 136.821 453.084 135.855 449.908 135.633C448.337 135.473 446.972 135.888 446.395 136.708C445.775 137.483 445.931 138.183 445.823 138.192Z" fill="#17282F"/>
<path d="M437.627 93.2239C437.757 93.2839 436.153 95.1719 435.592 98.9279C435.284 100.784 435.244 103.036 435.276 105.545C435.307 108.048 435.419 110.805 435.987 113.617C437.251 119.217 439.541 124.036 441.68 127.116C442.763 128.667 443.717 129.872 444.395 130.684C445.069 131.5 445.492 131.905 445.459 131.945C445.379 132.045 443.563 130.476 441.283 127.403C438.991 124.317 436.604 119.491 435.305 113.756C434.724 110.869 434.632 108.068 434.636 105.548C434.639 103.032 434.729 100.736 435.108 98.8426C435.461 96.9452 436.087 95.4852 436.631 94.5599C437.18 93.6319 437.6 93.2026 437.627 93.2239Z" fill="#17282F"/>
<path d="M444.536 109.043C444.607 108.989 445.357 109.832 446.411 111.321C447.461 112.808 448.789 114.963 449.952 117.5C451.116 120.036 451.873 122.455 452.295 124.229C452.716 126.004 452.837 127.128 452.752 127.145C452.536 127.196 451.629 122.784 449.321 117.788C447.036 112.788 444.348 109.173 444.536 109.043Z" fill="#17282F"/>
<path d="M442.281 117.348C442.42 117.231 444.665 119.501 447.608 122.14C450.54 124.791 452.888 126.992 452.752 127.145C452.633 127.279 450.088 125.319 447.14 122.653C444.179 119.999 442.125 117.477 442.281 117.348Z" fill="#17282F"/>
<path d="M477.175 148.631C477.18 148.639 477.115 148.703 476.983 148.82C476.795 148.979 476.601 149.144 476.396 149.319C475.888 149.755 475.112 150.339 474.12 151.011C472.141 152.357 469.208 153.957 465.727 155.107C462.24 156.245 458.929 156.697 456.537 156.784C455.34 156.831 454.369 156.823 453.703 156.772C453.432 156.753 453.179 156.735 452.933 156.717C452.759 156.703 452.667 156.689 452.667 156.68C452.668 156.671 452.76 156.664 452.936 156.661C453.181 156.663 453.436 156.663 453.705 156.664C454.372 156.681 455.339 156.66 456.527 156.588C458.903 156.451 462.181 155.973 465.64 154.843C469.093 153.703 472.016 152.144 474.012 150.847C475.011 150.199 475.801 149.643 476.329 149.235C476.547 149.073 476.749 148.923 476.948 148.776C477.091 148.675 477.169 148.624 477.175 148.631Z" fill="#FAFAF9"/>
<path d="M485.029 164.768C485.036 164.775 484.968 164.839 484.836 164.955C484.645 165.112 484.451 165.275 484.241 165.448C483.729 165.879 482.949 166.459 481.955 167.131C479.973 168.477 477.059 170.105 473.609 171.355C470.156 172.595 466.871 173.201 464.485 173.429C463.292 173.545 462.321 173.596 461.652 173.592C461.381 173.592 461.125 173.591 460.88 173.591C460.704 173.587 460.612 173.58 460.612 173.571C460.612 173.561 460.704 173.548 460.88 173.535C461.124 173.519 461.379 173.501 461.648 173.484C462.315 173.455 463.28 173.373 464.464 173.233C466.833 172.957 470.085 172.324 473.515 171.093C476.94 169.853 479.848 168.265 481.848 166.965C482.849 166.319 483.644 165.765 484.176 165.363C484.396 165.204 484.601 165.055 484.8 164.911C484.945 164.809 485.023 164.76 485.029 164.768Z" fill="#FAFAF9"/>
<path d="M482.848 188.303C482.859 188.32 482.657 188.467 482.284 188.72C481.912 188.976 481.352 189.316 480.643 189.704C479.228 190.481 477.169 191.388 474.777 192.017C472.384 192.64 470.144 192.856 468.529 192.872C467.721 192.881 467.067 192.859 466.619 192.817C466.168 192.78 465.92 192.749 465.921 192.731C465.923 192.712 466.173 192.705 466.621 192.709C467.071 192.717 467.723 192.709 468.523 192.676C470.125 192.611 472.339 192.364 474.707 191.748C477.073 191.125 479.123 190.257 480.552 189.529C481.268 189.167 481.84 188.855 482.227 188.628C482.617 188.404 482.839 188.288 482.848 188.303Z" fill="#FAFAF9"/>
<path d="M487.372 184.703C487.387 184.779 486.58 184.996 485.571 185.191C484.563 185.385 483.732 185.481 483.719 185.407C483.704 185.331 484.509 185.112 485.519 184.919C486.528 184.724 487.357 184.628 487.372 184.703Z" fill="#FAFAF9"/>
<path d="M474.141 212.376C474.151 212.447 472.787 212.657 471.099 212.529C469.409 212.409 468.092 212.003 468.112 211.935C468.131 211.855 469.457 212.135 471.119 212.252C472.78 212.379 474.133 212.295 474.141 212.376Z" fill="#FAFAF9"/>
<path d="M448.839 142.653C448.875 142.72 448.079 143.231 447.061 143.792C446.041 144.355 445.185 144.756 445.148 144.688C445.112 144.621 445.907 144.111 446.927 143.548C447.945 142.987 448.801 142.585 448.839 142.653Z" fill="#FAFAF9"/>
<path d="M442.216 128.657C442.249 128.743 440.295 129.328 438.285 130.772C436.261 132.195 435.065 133.848 434.997 133.787C434.971 133.768 435.232 133.332 435.761 132.704C436.288 132.076 437.103 131.273 438.124 130.545C439.149 129.819 440.175 129.315 440.943 129.023C441.709 128.731 442.207 128.627 442.216 128.657Z" fill="#FAFAF9"/>
<path d="M454.228 144.157C454.136 144.145 454.599 142.343 454.297 140.117C454.023 137.887 453.116 136.261 453.201 136.225C453.229 136.211 453.492 136.592 453.796 137.273C454.103 137.955 454.425 138.947 454.572 140.081C454.719 141.216 454.659 142.257 454.536 142.993C454.415 143.731 454.259 144.167 454.228 144.157Z" fill="#FAFAF9"/>
<path d="M495.481 100.672C495.481 100.672 495.013 101.276 494.02 102.229C493.031 103.184 491.487 104.457 489.408 105.777C487.331 107.097 484.715 108.435 481.741 109.741C478.771 111.057 475.445 112.357 472.075 113.975C468.712 115.597 465.635 117.449 463.231 119.615C460.827 121.773 459.099 124.177 458.039 126.376C456.983 128.581 456.567 130.548 456.453 131.908C456.337 133.272 456.433 134.031 456.389 134.032C456.389 134.032 456.363 133.844 456.341 133.483C456.307 133.121 456.313 132.587 456.347 131.899C456.428 130.525 456.817 128.532 457.861 126.291C458.909 124.059 460.639 121.616 463.061 119.425C465.48 117.225 468.576 115.353 471.953 113.724C475.339 112.1 478.669 110.808 481.637 109.507C484.612 108.216 487.224 106.903 489.304 105.611C491.385 104.319 492.94 103.076 493.948 102.149C494.449 101.684 494.835 101.316 495.083 101.053C495.337 100.799 495.481 100.672 495.481 100.672Z" fill="#FAFAF9"/>
<path d="M491.876 116.497C491.884 116.503 491.823 116.605 491.699 116.799C491.528 117.056 491.345 117.332 491.144 117.636C490.665 118.364 489.915 119.381 488.94 120.599C486.993 123.035 484.015 126.192 480.252 129.121C476.479 132.043 472.681 134.145 469.839 135.425C468.417 136.069 467.247 136.544 466.421 136.827C466.076 136.947 465.765 137.056 465.473 137.157C465.256 137.229 465.14 137.263 465.137 137.253C465.133 137.244 465.243 137.193 465.455 137.104C465.74 136.988 466.045 136.864 466.384 136.725C467.195 136.412 468.351 135.912 469.756 135.248C472.567 133.927 476.328 131.808 480.081 128.903C483.827 125.988 486.809 122.871 488.787 120.475C489.78 119.277 490.551 118.281 491.056 117.573C491.273 117.28 491.469 117.015 491.652 116.767C491.791 116.585 491.868 116.491 491.876 116.497Z" fill="#FAFAF9"/>
<path d="M436.221 97.7614C436.221 97.7614 437.865 98.3881 440.263 99.9001C442.657 101.403 445.737 103.9 448.436 107.292C451.121 110.695 452.848 114.265 453.764 116.94C454.688 119.619 454.924 121.363 454.924 121.363C454.915 121.364 454.88 121.26 454.823 121.06C454.749 120.787 454.672 120.499 454.587 120.183C454.4 119.419 454.061 118.327 453.579 117.007C452.621 114.364 450.883 110.84 448.219 107.465C445.541 104.1 442.508 101.601 440.156 100.065C438.98 99.2935 437.996 98.7148 437.292 98.3588C437.005 98.2041 436.741 98.0628 436.493 97.9281C436.311 97.8268 436.217 97.7694 436.221 97.7614Z" fill="#FAFAF9"/>
<path d="M369.353 147.9C369.875 154.967 365.208 161.28 360.505 166.581C355.803 171.883 350.571 177.408 349.555 184.421C347.753 196.851 359.921 208.389 357.412 220.695C356.067 227.291 350.668 232.588 349.705 239.249C348.775 245.692 352.228 251.999 356.507 256.904C360.787 261.809 365.745 261.092 369.531 266.388C373.519 271.967 379.94 277.691 385.955 280.985C399.592 288.453 415.959 277.648 422.537 275.709" fill="#17282F"/>
<path d="M472.484 176.863C478.771 174.127 479.264 151.6 463.492 148.997C457.167 147.955 451.896 144.867 446.577 141.287C441.868 138.117 440.471 130.072 436.484 126.031C426.704 116.116 411.435 112.007 398 115.671C384.564 119.336 373.499 130.632 370.108 144.139C367.816 153.267 369.381 164.057 376.575 170.124C384.927 177.163 397.307 175.6 408.005 173.409C418.707 171.22 430.817 169.06 439.749 175.344C445.137 179.132 448.227 185.297 451.519 191.001C454.812 196.707 458.947 202.531 465.173 204.675C465.173 204.675 469.916 215.819 466.045 223.576C462.173 231.332 470.597 218.103 470.597 218.103C470.597 218.103 485.952 190.799 472.484 176.863Z" fill="#17282F"/>
<path d="M392.597 334.969C392.509 320.263 392.603 278.963 392.597 279.039C392.597 279.039 369.235 275.107 364.46 244.604C362.085 229.435 362.903 204.573 364.228 184.252C365.421 165.961 377.591 143.544 395.815 145.512L452.699 160.023C458.233 160.621 462.393 165.356 462.271 170.923L458.808 312.193L392.597 334.969Z" fill="#F8A58D"/>
<path d="M373.909 201.677C373.833 203.743 375.516 205.512 377.672 205.631C379.824 205.752 381.633 204.18 381.711 202.115C381.788 200.049 380.104 198.279 377.953 198.159C375.797 198.037 373.988 199.613 373.909 201.677Z" fill="#17282F"/>
<path d="M369.593 197.197C370.076 197.709 373.044 195.523 377.252 195.544C381.456 195.504 384.54 197.675 384.997 197.16C385.223 196.933 384.729 196.012 383.388 195.029C382.065 194.052 379.811 193.099 377.188 193.104C374.568 193.112 372.36 194.073 371.091 195.057C369.795 196.047 369.355 196.968 369.593 197.197Z" fill="#17282F"/>
<path d="M410.955 203.904C411.44 204.415 414.411 202.229 418.616 202.249C422.819 202.209 425.903 204.38 426.36 203.867C426.584 203.639 426.099 202.717 424.749 201.736C423.429 200.757 421.173 199.804 418.553 199.809C415.931 199.819 413.725 200.779 412.453 201.763C411.161 202.753 410.719 203.675 410.955 203.904Z" fill="#17282F"/>
<path d="M395.615 229.248C395.635 229.009 393.019 228.552 388.783 228C387.708 227.887 386.691 227.671 386.511 226.937C386.26 226.16 386.713 225.003 387.236 223.753C388.252 221.156 389.316 218.433 390.432 215.579C394.871 203.939 398.087 194.367 397.616 194.192C397.147 194.017 393.167 203.311 388.728 214.951C387.66 217.821 386.637 220.557 385.665 223.175C385.256 224.395 384.553 225.779 385.099 227.391C385.387 228.195 386.173 228.779 386.861 228.965C387.551 229.177 388.155 229.191 388.687 229.224C392.951 229.463 395.599 229.488 395.615 229.248Z" fill="#17282F"/>
<path d="M392.597 279.039C392.597 279.039 413.108 280.408 433.457 268.236C433.115 268.309 422.213 289.433 392.993 286.24L392.597 279.039Z" fill="#F68260"/>
<path d="M396.828 241.396C396.327 238.807 399.372 237.967 401.613 236.575C403.852 235.184 405.14 233.332 407.237 234.929C408.437 235.841 409.293 237.152 409.832 238.559C410.193 239.507 410.421 240.537 410.251 241.537C410.044 242.753 409.272 243.803 408.376 244.652C407.112 245.852 405.529 246.755 403.808 247.043C402.088 247.328 400.231 246.959 398.861 245.879C397.492 244.799 396.684 242.983 396.976 241.264" fill="#F68260"/>
<path d="M407.992 232.187C407.308 232.145 407.288 236.713 403.372 239.947C399.463 243.191 394.593 242.667 394.557 243.305C394.493 243.592 395.64 244.195 397.693 244.255C399.711 244.329 402.655 243.688 405.052 241.709C407.443 239.727 408.473 237.076 408.632 235.203C408.812 233.295 408.304 232.16 407.992 232.187Z" fill="#17282F"/>
<path d="M410.331 194.503C410.743 195.647 414.947 195.115 419.881 195.72C424.829 196.227 428.807 197.681 429.464 196.656C429.759 196.165 429.065 195.088 427.459 193.977C425.867 192.868 423.323 191.811 420.359 191.473C417.396 191.143 414.681 191.608 412.881 192.336C411.067 193.061 410.153 193.959 410.331 194.503Z" fill="#17282F"/>
<path d="M370.177 182.643C370.916 183.6 373.817 182.615 377.304 182.575C380.788 182.413 383.74 183.232 384.423 182.233C384.721 181.748 384.257 180.791 382.969 179.883C381.701 178.979 379.576 178.237 377.18 178.303C374.785 178.375 372.708 179.236 371.493 180.212C370.26 181.192 369.853 182.175 370.177 182.643Z" fill="#17282F"/>
<path d="M465.604 262.035C457.219 263.725 456.471 259.457 450.205 253.633C443.94 247.809 440.704 238.888 441.779 230.401C442.727 222.912 446.764 215.293 444.168 208.205C440.735 198.833 427.599 195.949 424.112 186.599C422.085 181.163 423.904 174.804 421.608 169.479C419.449 164.469 414.179 161.584 409.049 159.731C403.92 157.876 398.42 156.596 394.113 153.248C389.807 149.9 387.12 143.583 389.899 138.888C412.647 141.615 435.067 147.063 456.529 155.077C461.507 156.936 466.733 159.171 469.676 163.593C472.788 168.273 472.64 174.321 472.379 179.936C471.1 207.316 469.823 234.695 468.545 262.075" fill="#17282F"/>
<path d="M485.035 251.801C485.053 251.815 485.167 251.687 485.368 251.421C485.556 251.148 485.896 250.775 486.209 250.203C486.897 249.097 487.727 247.317 488.219 244.871C488.707 242.437 488.752 239.283 487.729 235.865C486.776 232.457 484.4 228.796 480.632 226.321C477.015 223.771 472.304 221.993 469.311 217.935C467.819 215.953 467.185 213.381 467.656 210.775C468.064 208.159 469.26 205.593 470.308 202.863C472.64 197.399 472.663 190.575 469.916 184.657C468.531 181.715 466.479 178.973 463.729 176.971C460.999 174.905 457.664 173.841 454.376 173.093C451.073 172.34 447.78 171.903 444.723 170.98C441.672 170.068 438.756 168.701 436.636 166.557C434.463 164.441 433.543 161.509 433.129 158.557C432.713 155.608 432.492 152.548 431.693 149.692C430.203 143.973 427.296 138.907 423.464 135.267C419.633 131.603 414.94 129.501 410.509 128.84C406.063 128.147 401.873 128.971 398.723 130.624C395.537 132.245 393.327 134.493 391.904 136.527C390.487 138.587 389.827 140.439 389.519 141.701C389.203 142.968 389.223 143.663 389.223 143.663C389.42 143.745 389.46 140.803 392.328 136.832C393.772 134.904 395.964 132.788 399.057 131.296C402.112 129.772 406.111 129.056 410.363 129.776C414.595 130.467 419.071 132.535 422.693 136.068C426.328 139.585 429.092 144.472 430.499 150.003C431.253 152.765 431.447 155.679 431.864 158.747C432.26 161.767 433.276 165.112 435.701 167.479C438.052 169.863 441.168 171.3 444.339 172.257C447.543 173.224 450.845 173.659 454.079 174.4C457.295 175.131 460.429 176.147 462.94 178.045C465.488 179.893 467.415 182.448 468.727 185.212C471.32 190.801 471.355 197.175 469.153 202.424C468.147 205.109 466.921 207.744 466.491 210.597C465.981 213.435 466.747 216.453 468.412 218.589C471.739 222.963 476.588 224.667 480.099 227.104C483.749 229.439 486.011 232.819 487.013 236.091C488.063 239.351 488.103 242.404 487.704 244.78C486.869 249.604 484.835 251.715 485.035 251.801Z" fill="#33535F"/>
<path d="M445.36 221.501C438.455 237.391 437.175 255.659 441.797 272.356C443.177 277.345 445.084 282.517 443.904 287.557C442.628 293.015 438.067 296.96 434.739 301.467C429.009 309.228 426.777 319.471 428.757 328.911C430.736 338.352 436.897 346.833 445.263 351.636C446.143 346.623 450.808 343.204 455.409 341.023C460.009 338.843 465.095 337.227 468.603 333.537C472.112 329.849 473.105 323.084 469.025 320.039C480.764 316.972 487.416 303.029 484.945 291.151C482.475 279.273 472.815 269.888 461.828 264.743" fill="#17282F"/>
<path d="M457.877 339.908C455.777 341.06 453.741 342.088 453.483 344.468C453.177 347.261 455.856 352.163 456.819 354.801C458.7 359.964 457.283 366.172 453.344 370.005C449.407 373.839 443.164 375.089 438.053 373.071C441.809 373.357 444.997 369.692 445.332 365.94C445.667 362.188 443.845 358.567 441.607 355.536C439.368 352.507 436.657 349.812 434.757 346.559C430.893 339.935 425.153 321.912 429.571 311.82" fill="#17282F"/>
<path d="M468.549 320.503C468.535 320.483 468.785 320.273 469.269 319.895C469.759 319.519 470.468 318.951 471.363 318.199C473.14 316.689 475.663 314.407 478.217 311.111C480.756 307.833 483.355 303.485 484.712 298.155C486.045 292.868 486.143 286.556 483.852 280.645C482.712 277.699 481.009 275.089 479.028 272.852C477.065 270.596 474.928 268.629 472.921 266.717C470.913 264.808 469.019 262.953 467.451 261.023C465.876 259.091 464.687 257.076 463.864 255.124C462.157 251.224 462.089 247.608 462.687 245.324C462.991 244.179 463.372 243.333 463.684 242.799C464.004 242.265 464.179 241.993 464.2 242.007C464.291 242.049 463.477 243.121 462.952 245.385C462.449 247.635 462.588 251.136 464.313 254.928C465.147 256.824 466.337 258.784 467.895 260.657C469.453 262.537 471.344 264.36 473.361 266.253C475.375 268.148 477.537 270.116 479.541 272.407C481.563 274.672 483.329 277.365 484.5 280.395C486.852 286.471 486.727 292.927 485.332 298.313C483.909 303.749 481.221 308.135 478.603 311.415C475.967 314.711 473.373 316.956 471.533 318.408C470.608 319.132 469.869 319.668 469.352 320.008C468.839 320.352 468.563 320.521 468.549 320.503Z" fill="#33535F"/>
<path d="M85.354 479.748C88.7259 483.97 94.6452 482.131 97.2624 479.258C99.8801 476.388 100.812 472.405 101.65 468.611C103.565 459.941 105.473 450.852 103.106 442.298C102.398 439.737 101.265 437.213 99.3228 435.405C97.3801 433.596 94.5072 432.628 91.9884 433.465C89.0078 434.458 87.3103 437.546 86.127 440.456C82.6472 449.008 81.1067 458.344 81.6556 467.563C81.9114 471.867 82.703 476.35 85.354 479.748Z" fill="#F03D5F"/>
<path d="M90.5474 482.233C88.6558 482.233 86.7776 481.531 85.3542 479.748C82.7031 476.35 81.9115 471.867 81.6558 467.563C81.5828 466.337 81.547 465.112 81.5474 463.885C81.5506 455.877 83.1094 447.872 86.1271 440.456C87.3104 437.545 89.0079 434.458 91.9886 433.465C92.614 433.257 93.262 433.162 93.912 433.162C95.8776 433.162 97.8631 434.045 99.323 435.405C101.266 437.213 102.398 439.737 103.106 442.297C103.892 445.137 104.207 448.037 104.206 450.96C104.206 456.841 102.93 462.82 101.651 468.61C100.813 472.405 99.8803 476.388 97.2626 479.258C95.75 480.919 93.136 482.233 90.5474 482.233Z" fill="#20517A"/>
<path d="M98.351 501.391C103.245 498.463 109.18 497.748 114.854 498.324C117.903 498.632 121.105 499.337 123.3 501.474C125.496 503.611 126.135 507.575 123.901 509.671C122.571 510.917 120.625 511.217 118.804 511.31C114.404 511.536 109.478 511.069 106.132 513.935C104.223 515.571 103.047 518.163 100.698 519.056C98.4005 519.929 95.6687 518.712 94.2921 516.676C92.9166 514.637 92.7087 511.996 93.1379 509.575C93.1379 509.575 93.4213 504.341 98.351 501.391Z" fill="#20517A"/>
<path d="M77.2599 486.622C80.3673 482.424 80.6381 476.572 78.8304 471.672C77.0214 466.774 73.3777 462.739 69.2694 459.515C64.4517 455.736 58.8902 452.909 52.9974 451.245C50.6788 450.589 48.2465 450.112 45.8668 450.491C43.487 450.869 41.1532 452.245 40.1709 454.445C38.7178 457.698 40.5413 461.417 42.4496 464.427C45.8116 469.727 49.5908 474.762 53.7418 479.469C57.0808 483.257 60.8662 486.963 65.6865 488.465C70.5069 489.969 75.3829 489.451 77.673 486.028" fill="#20517A"/>
<path d="M89.3385 546.401C89.3969 546.401 89.4464 545.68 89.4921 544.376C89.5421 542.907 89.6057 541.062 89.6803 538.864C89.7907 536.543 89.9552 533.779 90.4073 530.751C90.8584 527.732 91.6536 524.439 92.7312 521.082C93.8547 517.744 95.2891 514.684 97.0339 512.197C98.7645 509.701 100.843 507.844 102.836 506.723C104.821 505.581 106.633 505.055 107.891 504.793C109.164 504.58 109.875 504.433 109.872 504.377C109.869 504.32 109.15 504.355 107.836 504.474C106.538 504.643 104.645 505.093 102.547 506.211C100.442 507.308 98.2317 509.201 96.4125 511.752C94.576 514.293 93.0864 517.423 91.9427 520.821C90.8469 524.237 90.0688 527.562 89.65 530.643C89.2333 533.721 89.1297 536.512 89.0937 538.848C89.0656 541.185 89.1188 543.074 89.1688 544.377C89.2224 545.681 89.2817 546.401 89.3385 546.401Z" fill="#17282F"/>
<path d="M89.4517 542.163C89.4793 542.158 89.4772 541.837 89.4465 541.227C89.4006 540.527 89.3428 539.645 89.2714 538.564C89.1198 536.253 88.9105 532.908 88.7746 528.769C88.4589 520.495 88.4528 509.045 89.0381 496.424C89.6324 483.799 90.7569 472.405 91.9194 464.207C92.187 462.153 92.4704 460.303 92.7444 458.683C93.0012 457.057 93.2189 455.656 93.4433 454.52C93.6298 453.453 93.7818 452.582 93.9028 451.893C93.999 451.289 94.0361 450.969 94.008 450.963C93.9793 450.957 93.8881 451.264 93.7392 451.856C93.5777 452.54 93.3752 453.401 93.1266 454.458C92.8532 455.587 92.5881 456.981 92.287 458.601C91.9689 460.22 91.6449 462.069 91.3386 464.121C90.0246 472.316 88.8048 483.733 88.208 496.385C87.622 509.033 87.7214 520.509 88.1881 528.796C88.399 532.94 88.6985 536.287 88.9496 538.592C89.0845 539.67 89.1928 540.548 89.2804 541.244C89.3646 541.851 89.423 542.165 89.4517 542.163Z" fill="#17282F"/>
<path d="M88.1184 520.1C88.1752 520.093 88.1037 519.105 87.9236 517.317C87.7085 515.536 87.3007 512.967 86.597 509.833C85.8647 506.709 84.8829 503.005 83.4537 499.005C82.0824 494.985 80.2731 490.667 78.0439 486.297C73.6657 477.5 68.0252 470.437 63.2345 466.144C62.1017 464.997 60.8704 464.193 59.8756 463.395C59.3632 463.015 58.9075 462.629 58.448 462.333C57.9887 462.057 57.5605 461.8 57.1637 461.563C55.6184 460.641 54.7548 460.16 54.7267 460.209C54.6048 460.398 58.1851 462.213 62.8361 466.576C67.4684 470.931 72.9611 477.952 77.3043 486.674C79.5147 491.005 81.3313 495.282 82.7335 499.26C84.1919 503.22 85.2256 506.881 86.0261 509.969C86.7975 513.068 87.2913 515.605 87.6037 517.364C87.8808 519.129 88.0616 520.105 88.1184 520.1Z" fill="#17282F"/>
<path d="M291.547 215.041C289.088 206.329 277.765 207.175 277.765 207.175L278.076 213.235C284.621 212.104 288.689 219.775 288.689 219.775L291.547 215.041Z" fill="#102C44"/>
<path d="M180.145 113.689C174.033 114.337 173.303 122.012 173.303 122.012L177.393 122.497C177.387 117.988 182.987 116.144 182.987 116.144L180.145 113.689Z" fill="#102C44"/>
<path d="M237.057 32.3866C240.785 41.8866 253.395 39.6772 253.395 39.6772L252.371 32.9146C245.153 34.9106 239.736 26.7573 239.736 26.7573L237.057 32.3866Z" fill="#17282F"/>
<path d="M94.8776 192.871C88.7656 193.52 88.0349 201.193 88.0349 201.193L92.1254 201.68C92.1193 197.169 97.7182 195.325 97.7182 195.325L94.8776 192.871Z" fill="#102C44"/>
<path d="M120.06 62.7426C120.948 56.6599 113.696 54.0493 113.696 54.0493L112.21 57.8906C116.581 59.0039 116.978 64.8853 116.978 64.8853L120.06 62.7426Z" fill="#0C0F38"/>
<path d="M15.5672 156.089C14.4688 165.627 27.1016 167.936 27.1016 167.936L29.3807 161.695C21.8021 161.011 20.7079 152.083 20.7079 152.083L15.5672 156.089Z" fill="#102C44"/>
<path d="M315.803 110.072C321.94 110.421 323.903 102.968 323.903 102.968L319.947 101.827C319.221 106.276 313.397 107.189 313.397 107.189L315.803 110.072Z" fill="#102C44"/>
<path d="M168.091 340H164.148V328.364H168.17C169.326 328.364 170.318 328.597 171.148 329.062C171.981 329.525 172.621 330.189 173.068 331.057C173.515 331.924 173.739 332.962 173.739 334.17C173.739 335.383 173.513 336.424 173.062 337.295C172.616 338.167 171.97 338.835 171.125 339.301C170.284 339.767 169.273 340 168.091 340ZM166.256 338.176H167.989C168.799 338.176 169.475 338.028 170.017 337.733C170.559 337.434 170.966 336.989 171.239 336.398C171.511 335.803 171.648 335.061 171.648 334.17C171.648 333.28 171.511 332.542 171.239 331.955C170.966 331.364 170.563 330.922 170.028 330.631C169.498 330.335 168.839 330.188 168.051 330.188H166.256V338.176ZM179.457 340.17C178.605 340.17 177.866 339.983 177.241 339.608C176.616 339.233 176.132 338.708 175.787 338.034C175.446 337.36 175.276 336.572 175.276 335.67C175.276 334.769 175.446 333.979 175.787 333.301C176.132 332.623 176.616 332.097 177.241 331.722C177.866 331.347 178.605 331.159 179.457 331.159C180.31 331.159 181.048 331.347 181.673 331.722C182.298 332.097 182.781 332.623 183.122 333.301C183.467 333.979 183.639 334.769 183.639 335.67C183.639 336.572 183.467 337.36 183.122 338.034C182.781 338.708 182.298 339.233 181.673 339.608C181.048 339.983 180.31 340.17 179.457 340.17ZM179.469 338.523C179.931 338.523 180.317 338.396 180.628 338.142C180.938 337.884 181.17 337.54 181.321 337.108C181.476 336.676 181.554 336.195 181.554 335.665C181.554 335.131 181.476 334.648 181.321 334.216C181.17 333.78 180.938 333.434 180.628 333.176C180.317 332.919 179.931 332.79 179.469 332.79C178.995 332.79 178.601 332.919 178.287 333.176C177.976 333.434 177.743 333.78 177.588 334.216C177.437 334.648 177.361 335.131 177.361 335.665C177.361 336.195 177.437 336.676 177.588 337.108C177.743 337.54 177.976 337.884 178.287 338.142C178.601 338.396 178.995 338.523 179.469 338.523ZM187.442 334.886V340H185.385V331.273H187.351V332.756H187.453C187.654 332.267 187.974 331.879 188.413 331.591C188.857 331.303 189.404 331.159 190.055 331.159C190.658 331.159 191.182 331.288 191.629 331.545C192.08 331.803 192.429 332.176 192.675 332.665C192.925 333.153 193.048 333.746 193.044 334.443V340H190.987V334.761C190.987 334.178 190.836 333.722 190.533 333.392C190.233 333.062 189.819 332.898 189.288 332.898C188.929 332.898 188.608 332.977 188.328 333.136C188.052 333.292 187.834 333.517 187.675 333.812C187.519 334.108 187.442 334.466 187.442 334.886ZM198.999 340.17C198.124 340.17 197.368 339.989 196.732 339.625C196.099 339.258 195.612 338.739 195.271 338.068C194.93 337.394 194.76 336.6 194.76 335.688C194.76 334.79 194.93 334.002 195.271 333.324C195.616 332.642 196.097 332.112 196.714 331.733C197.332 331.35 198.057 331.159 198.891 331.159C199.429 331.159 199.936 331.246 200.413 331.42C200.894 331.591 201.319 331.856 201.686 332.216C202.057 332.576 202.349 333.034 202.561 333.591C202.773 334.144 202.879 334.803 202.879 335.568V336.199H195.726V334.812H200.908C200.904 334.419 200.819 334.068 200.652 333.761C200.485 333.451 200.252 333.206 199.953 333.028C199.658 332.85 199.313 332.761 198.919 332.761C198.499 332.761 198.129 332.864 197.811 333.068C197.493 333.269 197.245 333.534 197.067 333.864C196.893 334.189 196.804 334.547 196.8 334.938V336.148C196.8 336.655 196.893 337.091 197.078 337.455C197.264 337.814 197.523 338.091 197.857 338.284C198.19 338.473 198.58 338.568 199.027 338.568C199.326 338.568 199.597 338.527 199.839 338.443C200.082 338.356 200.292 338.229 200.47 338.062C200.648 337.896 200.783 337.689 200.874 337.443L202.794 337.659C202.673 338.167 202.442 338.61 202.101 338.989C201.764 339.364 201.332 339.655 200.805 339.864C200.279 340.068 199.677 340.17 198.999 340.17Z" fill="white"/>
</g>
<defs>
<clipPath id="clip0_147_2">
<rect width="624.547" height="546.76" fill="white"/>
</clipPath>
</defs>
</svg>
